<svg width="95" height="95" viewBox="0 0 95 95" fill="none" xmlns="http://www.w3.org/2000/svg">
<g clip-path="url(#clip0)">
<path d="M87.8183 -0.255127C91.6925 -0.255127 94.8478 2.81252 94.8478 6.59638V87.9125C94.8478 91.6963 91.6925 94.7692 87.8183 94.7692H6.83471C2.9681 94.7692 -0.17395 91.6963 -0.17395 87.9125V6.59638C-0.17395 2.81252 2.9681 -0.255127 6.83471 -0.255127H87.8183V-0.255127ZM80.7993 80.7155V55.8459C80.7993 43.6328 78.1623 34.2432 63.8922 34.2432C57.0353 34.2432 52.4368 38.003 50.5575 41.5679H50.3646V35.3686H36.8547V80.7155H50.9314V58.2869C50.9314 52.3712 52.0504 46.6396 59.3838 46.6396C66.6166 46.6396 66.707 53.4048 66.707 58.6634V80.7155H80.7993V80.7155ZM28.0132 35.3686H13.9053V80.7155H28.0132V35.3686ZM20.963 12.8267C16.4366 12.8267 12.7867 16.4884 12.7867 20.9995C12.7867 25.5116 16.4366 29.1732 20.963 29.1732C25.4716 29.1732 29.1319 25.5116 29.1319 20.9995C29.1319 16.4884 25.4716 12.8267 20.963 12.8267V12.8267Z" fill="black"/>
</g>
<defs>
<clipPath id="clip0">
<rect width="95" height="95" fill="white"/>
</clipPath>
</defs>
</svg>
