<svg width="95" height="95" viewBox="0 0 95 95" fill="none" xmlns="http://www.w3.org/2000/svg">
<rect width="95" height="95" rx="7" fill="#010101"/>
<path d="M47 16C29.3543 16 15 30.3543 15 48C15 65.6457 29.3543 80 47 80C64.6457 80 79 65.6457 79 48C79 30.3543 64.6457 16 47 16ZM44.7143 21.1429V30.4762H37.7619C38.0952 29.6042 38.4345 28.747 38.8095 27.9762C40.5685 24.3661 42.6548 22.1161 44.7143 21.1429V21.1429ZM49.2857 21.1429C51.3452 22.116 53.4315 24.3661 55.1905 27.9762C55.5655 28.747 55.9048 29.6042 56.2381 30.4762H49.2857V21.1429ZM36.667 22.5952C35.9617 23.6398 35.3039 24.7678 34.7147 25.9762C34.0361 27.366 33.4408 28.8779 32.9051 30.4761H25.9051C28.7682 27.0297 32.4468 24.3064 36.667 22.595V22.5952ZM57.3337 22.5952C61.554 24.3065 65.2324 27.0297 68.0956 30.4763H61.0956C60.5599 28.8781 59.9647 27.3662 59.2861 25.9764C58.6968 24.7681 58.0391 23.6401 57.3337 22.5954V22.5952ZM22.8103 35.0478H31.6194C30.8754 38.3513 30.42 41.9466 30.2861 45.7144H19.6667C19.9821 41.8751 21.0834 38.271 22.8095 35.0478H22.8103ZM36.3341 35.0478H44.715V45.7144H34.8575C35.0093 41.8781 35.5331 38.271 36.3337 35.0478H36.3341ZM49.2865 35.0478H57.6674C58.468 38.271 58.9918 41.8781 59.1436 45.7144H49.2861L49.2865 35.0478ZM62.3821 35.0478H71.1912C72.9174 38.271 74.0186 41.8751 74.3341 45.7144H63.7147C63.5807 41.9466 63.1254 38.3513 62.3813 35.0478H62.3821ZM19.6682 50.2859H30.2876C30.4215 54.0626 30.8739 57.649 31.621 60.9525H22.8118C21.0886 57.7293 19.9845 54.1192 19.669 50.2859H19.6682ZM34.859 50.2859H44.7166V60.9525H36.3356C35.538 57.7352 35.0082 54.1162 34.8594 50.2859H34.859ZM49.288 50.2859H59.1455C58.9967 54.1162 58.467 57.7352 57.6693 60.9525H49.2884L49.288 50.2859ZM63.717 50.2859H74.3364C74.0209 54.1192 72.9167 57.7293 71.1935 60.9525H62.3844C63.1314 57.649 63.5838 54.0626 63.7177 50.2859H63.717ZM25.8838 65.524H32.9077C33.4434 67.1192 34.0386 68.6103 34.7172 70.0002C35.3124 71.2234 35.979 72.3722 36.6934 73.4287C32.4553 71.7144 28.7559 68.9883 25.8835 65.524H25.8838ZM37.765 65.524H44.7173V74.8809C42.6578 73.9017 40.5715 71.6101 38.8126 68C38.4376 67.2262 38.0983 66.3958 37.765 65.5238V65.524ZM49.2888 65.524H56.2411C55.9078 66.396 55.5685 67.2264 55.1935 68.0002C53.4346 71.6103 51.3483 73.9019 49.2888 74.8811V65.524ZM61.0983 65.524H68.1221C65.2501 68.9883 61.5507 71.7144 57.3122 73.4287C58.0265 72.3722 58.6932 71.2234 59.2885 70.0002C59.967 68.6103 60.5623 67.1192 61.098 65.524H61.0983Z" fill="white"/>
</svg>
