<svg width="95" height="95" viewBox="0 0 95 95" fill="none" xmlns="http://www.w3.org/2000/svg">
<path fill-rule="evenodd" clip-rule="evenodd" d="M4.76874 0H90.2867C92.8679 0 95 2.1323 95 4.76985V90.2869C95 92.8679 92.8679 95 90.2869 95H4.76874C2.1323 95 0 92.8679 0 90.2869V4.76985C0 2.1323 2.1323 0 4.76874 0ZM51.8488 22.2207C49.9965 23.6799 48.4817 25.5312 47.5267 27.6636L46.9667 29.0106C46.6849 29.7959 46.4606 30.6941 46.3492 31.5916C46.2938 31.9848 46.2362 32.3777 46.2362 32.77V33.5562L46.2938 34.791L46.5181 36.418H46.4606L45.8431 36.4735H45.4519C40.6813 36.418 36.1367 35.3519 31.9836 33.4996L29.5715 32.3213C29.1229 32.097 28.6742 31.817 28.2811 31.5916C25.5869 29.9645 23.1748 28.0011 20.9868 25.7558C19.6388 24.2975 18.4615 22.7818 17.3397 21.1548C16.1606 23.3991 15.4874 25.9246 15.4874 28.6176C15.4874 29.6281 15.5987 30.6377 15.7674 31.5916C15.8231 31.9848 15.9361 32.3777 16.0474 32.77C16.8336 35.6885 18.4059 38.2694 20.5382 40.2338L21.6043 41.1311L20.2563 40.8511C18.5172 40.4015 16.7781 39.8406 15.1501 39.1676C15.3744 42.6468 16.7224 45.8453 18.8547 48.3706C20.8182 50.7829 23.5103 52.5795 26.5974 53.477L23.006 53.7013L20.032 53.5327C22.2775 58.9764 27.3837 62.9034 33.4986 63.4095C27.8881 67.5053 20.9295 69.8617 13.4666 69.9174C18.9659 73.229 25.3071 75.3057 32.0968 75.6966H36.5856C57.6858 74.5193 74.4062 57.0683 74.4062 35.6883L74.3486 33.6116C75.1348 32.9952 75.9785 32.3212 76.7071 31.5916C78.5019 29.8524 80.128 27.9445 81.5315 25.9246C79.3417 27.3272 76.7071 28.169 73.8462 28.169H73.6775H73.5625L73.6775 28.1133C76.3121 26.4297 78.3906 23.8478 79.3994 20.8182C77.3246 21.8277 75.0773 22.7262 72.7802 23.3435L72.4427 23.3991L70.7592 23.7923C68.1783 21.0982 64.6425 19.4156 60.7154 19.359H60.6004H60.4354C59.3117 19.359 58.2456 19.4711 57.1794 19.6956C55.6071 20.0886 54.1498 20.7061 52.8575 21.5479L51.8488 22.2207Z" fill="#010101"/>
</svg>
